<mxfile host="app.diagrams.net" modified="2020-08-23T09:35:20.421Z" agent="5.0 (Macintosh; Intel Mac OS X 10_14_3) AppleWebKit/537.36 (KHTML, like Gecko) Chrome/84.0.4147.135 Safari/537.36" etag="21uv2oFqBJjAmzx4YOxf" version="13.6.4" type="github">
  <diagram name="Page-1" id="9f46799a-70d6-7492-0946-bef42562c5a5">
    <mxGraphModel dx="2377" dy="1403" grid="1" gridSize="10" guides="1" tooltips="1" connect="1" arrows="1" fold="1" page="1" pageScale="1" pageWidth="1100" pageHeight="850" background="#ffffff" math="0" shadow="0">
      <root>
        <mxCell id="0" />
        <mxCell id="1" parent="0" />
        <mxCell id="ul7a6vIlJn1iiLn345K2-20" value="" style="rounded=1;whiteSpace=wrap;html=1;strokeColor=#51FF3D;fillColor=#FFFFFF;" vertex="1" parent="1">
          <mxGeometry x="510.12" y="180" width="401.75" height="500" as="geometry" />
        </mxCell>
        <mxCell id="ul7a6vIlJn1iiLn345K2-13" value="" style="rounded=1;whiteSpace=wrap;html=1;strokeColor=#51FF3D;fillColor=#D9F1FF;" vertex="1" parent="1">
          <mxGeometry x="240" y="180" width="150" height="510" as="geometry" />
        </mxCell>
        <mxCell id="ul7a6vIlJn1iiLn345K2-19" value="" style="endArrow=classic;html=1;fontFamily=Helvetica;fontSize=11;fontColor=#000000;align=center;strokeColor=#000000;edgeStyle=orthogonalEdgeStyle;" edge="1" parent="1" source="ul7a6vIlJn1iiLn345K2-1" target="ul7a6vIlJn1iiLn345K2-14">
          <mxGeometry relative="1" as="geometry">
            <mxPoint x="456" y="285" as="targetPoint" />
            <Array as="points">
              <mxPoint x="554" y="285" />
              <mxPoint x="554" y="355" />
            </Array>
          </mxGeometry>
        </mxCell>
        <mxCell id="ul7a6vIlJn1iiLn345K2-30" value="&lt;font style=&quot;font-size: 14px&quot;&gt;Rest Api&lt;/font&gt;" style="edgeLabel;html=1;align=center;verticalAlign=middle;resizable=0;points=[];" vertex="1" connectable="0" parent="ul7a6vIlJn1iiLn345K2-19">
          <mxGeometry x="-0.4954" y="3" relative="1" as="geometry">
            <mxPoint x="22.07" y="-12" as="offset" />
          </mxGeometry>
        </mxCell>
        <mxCell id="ul7a6vIlJn1iiLn345K2-1" value="Client Service" style="rounded=1;whiteSpace=wrap;html=1;" vertex="1" parent="1">
          <mxGeometry x="256" y="240" width="120" height="90" as="geometry" />
        </mxCell>
        <mxCell id="ul7a6vIlJn1iiLn345K2-8" value="" style="edgeStyle=orthogonalEdgeStyle;rounded=0;orthogonalLoop=1;jettySize=auto;html=1;" edge="1" parent="1" source="ul7a6vIlJn1iiLn345K2-4" target="ul7a6vIlJn1iiLn345K2-1">
          <mxGeometry relative="1" as="geometry" />
        </mxCell>
        <mxCell id="ul7a6vIlJn1iiLn345K2-4" value="Cloudfront" style="shape=image;html=1;verticalAlign=top;verticalLabelPosition=bottom;labelBackgroundColor=#ffffff;imageAspect=0;aspect=fixed;image=https://cdn2.iconfinder.com/data/icons/amazon-aws-stencils/100/Storage__Content_Delivery_Amazon_CloudFront-128.png" vertex="1" parent="1">
          <mxGeometry x="281" y="420" width="70" height="70" as="geometry" />
        </mxCell>
        <mxCell id="ul7a6vIlJn1iiLn345K2-5" value="" style="shape=image;html=1;verticalAlign=top;verticalLabelPosition=bottom;labelBackgroundColor=#ffffff;imageAspect=0;aspect=fixed;image=https://cdn4.iconfinder.com/data/icons/logos-3/600/React.js_logo-128.png" vertex="1" parent="1">
          <mxGeometry x="294" y="240" width="44" height="44" as="geometry" />
        </mxCell>
        <mxCell id="ul7a6vIlJn1iiLn345K2-6" value="S3" style="outlineConnect=0;dashed=0;verticalLabelPosition=bottom;verticalAlign=top;align=center;html=1;shape=mxgraph.aws3.s3;fillColor=#E05243;gradientColor=none;" vertex="1" parent="1">
          <mxGeometry x="287" y="590" width="58" height="70" as="geometry" />
        </mxCell>
        <mxCell id="ul7a6vIlJn1iiLn345K2-7" value="" style="endArrow=classic;html=1;" edge="1" parent="1" target="ul7a6vIlJn1iiLn345K2-4">
          <mxGeometry width="50" height="50" relative="1" as="geometry">
            <mxPoint x="316" y="590" as="sourcePoint" />
            <mxPoint x="366" y="540" as="targetPoint" />
          </mxGeometry>
        </mxCell>
        <mxCell id="ul7a6vIlJn1iiLn345K2-11" value="Frontend" style="text;html=1;align=center;verticalAlign=middle;resizable=0;points=[];autosize=1;" vertex="1" parent="1">
          <mxGeometry x="285" y="200" width="60" height="20" as="geometry" />
        </mxCell>
        <mxCell id="ul7a6vIlJn1iiLn345K2-39" value="" style="edgeStyle=orthogonalEdgeStyle;rounded=0;orthogonalLoop=1;jettySize=auto;html=1;" edge="1" parent="1" source="ul7a6vIlJn1iiLn345K2-14" target="ul7a6vIlJn1iiLn345K2-37">
          <mxGeometry relative="1" as="geometry" />
        </mxCell>
        <mxCell id="ul7a6vIlJn1iiLn345K2-40" value="" style="edgeStyle=orthogonalEdgeStyle;rounded=0;orthogonalLoop=1;jettySize=auto;html=1;" edge="1" parent="1" source="ul7a6vIlJn1iiLn345K2-14" target="ul7a6vIlJn1iiLn345K2-37">
          <mxGeometry relative="1" as="geometry" />
        </mxCell>
        <mxCell id="ul7a6vIlJn1iiLn345K2-58" style="edgeStyle=orthogonalEdgeStyle;rounded=0;orthogonalLoop=1;jettySize=auto;html=1;" edge="1" parent="1" source="ul7a6vIlJn1iiLn345K2-14" target="ul7a6vIlJn1iiLn345K2-52">
          <mxGeometry relative="1" as="geometry">
            <Array as="points">
              <mxPoint x="586" y="520" />
            </Array>
          </mxGeometry>
        </mxCell>
        <mxCell id="ul7a6vIlJn1iiLn345K2-14" value="Api gateway&lt;br&gt;" style="outlineConnect=0;dashed=0;verticalLabelPosition=bottom;verticalAlign=top;align=center;html=1;shape=mxgraph.aws3.api_gateway;fillColor=#D9A741;gradientColor=none;strokeColor=#51FF3D;" vertex="1" parent="1">
          <mxGeometry x="566" y="330" width="40" height="50" as="geometry" />
        </mxCell>
        <mxCell id="ul7a6vIlJn1iiLn345K2-21" value="Backend" style="text;html=1;strokeColor=none;fillColor=none;align=center;verticalAlign=middle;whiteSpace=wrap;rounded=0;" vertex="1" parent="1">
          <mxGeometry x="675.87" y="200" width="40.13" height="20" as="geometry" />
        </mxCell>
        <mxCell id="ul7a6vIlJn1iiLn345K2-26" value="Orbis Api" style="rounded=1;whiteSpace=wrap;html=1;strokeColor=#51FF3D;fillColor=#D9F1FF;" vertex="1" parent="1">
          <mxGeometry x="546" y="585" width="330" height="80" as="geometry" />
        </mxCell>
        <mxCell id="ul7a6vIlJn1iiLn345K2-27" value="" style="endArrow=classic;html=1;" edge="1" parent="1" target="ul7a6vIlJn1iiLn345K2-26">
          <mxGeometry width="50" height="50" relative="1" as="geometry">
            <mxPoint x="466" y="284" as="sourcePoint" />
            <mxPoint x="516" y="234" as="targetPoint" />
            <Array as="points">
              <mxPoint x="466" y="620" />
            </Array>
          </mxGeometry>
        </mxCell>
        <mxCell id="ul7a6vIlJn1iiLn345K2-43" value="" style="edgeStyle=orthogonalEdgeStyle;rounded=0;orthogonalLoop=1;jettySize=auto;html=1;" edge="1" parent="1" source="ul7a6vIlJn1iiLn345K2-36" target="ul7a6vIlJn1iiLn345K2-42">
          <mxGeometry relative="1" as="geometry" />
        </mxCell>
        <mxCell id="ul7a6vIlJn1iiLn345K2-36" value="send email" style="outlineConnect=0;dashed=0;verticalLabelPosition=bottom;verticalAlign=top;align=center;html=1;shape=mxgraph.aws3.lambda_function;fillColor=#F58534;gradientColor=none;strokeColor=#51FF3D;" vertex="1" parent="1">
          <mxGeometry x="677" y="240" width="39" height="42" as="geometry" />
        </mxCell>
        <mxCell id="ul7a6vIlJn1iiLn345K2-47" value="" style="edgeStyle=orthogonalEdgeStyle;rounded=0;orthogonalLoop=1;jettySize=auto;html=1;" edge="1" parent="1" source="ul7a6vIlJn1iiLn345K2-37" target="ul7a6vIlJn1iiLn345K2-46">
          <mxGeometry relative="1" as="geometry" />
        </mxCell>
        <mxCell id="ul7a6vIlJn1iiLn345K2-48" value="read" style="edgeLabel;html=1;align=center;verticalAlign=middle;resizable=0;points=[];" vertex="1" connectable="0" parent="ul7a6vIlJn1iiLn345K2-47">
          <mxGeometry x="-0.1012" y="2" relative="1" as="geometry">
            <mxPoint x="0.030000000000001137" y="2" as="offset" />
          </mxGeometry>
        </mxCell>
        <mxCell id="ul7a6vIlJn1iiLn345K2-37" value="" style="outlineConnect=0;dashed=0;verticalLabelPosition=bottom;verticalAlign=top;align=center;html=1;shape=mxgraph.aws3.lambda_function;fillColor=#F58534;gradientColor=none;strokeColor=#51FF3D;" vertex="1" parent="1">
          <mxGeometry x="677" y="340" width="40" height="40" as="geometry" />
        </mxCell>
        <mxCell id="ul7a6vIlJn1iiLn345K2-49" style="edgeStyle=orthogonalEdgeStyle;rounded=0;orthogonalLoop=1;jettySize=auto;html=1;" edge="1" parent="1" source="ul7a6vIlJn1iiLn345K2-38" target="ul7a6vIlJn1iiLn345K2-46">
          <mxGeometry relative="1" as="geometry" />
        </mxCell>
        <mxCell id="ul7a6vIlJn1iiLn345K2-50" value="write" style="edgeLabel;html=1;align=center;verticalAlign=middle;resizable=0;points=[];" vertex="1" connectable="0" parent="ul7a6vIlJn1iiLn345K2-49">
          <mxGeometry x="-0.3252" relative="1" as="geometry">
            <mxPoint as="offset" />
          </mxGeometry>
        </mxCell>
        <mxCell id="ul7a6vIlJn1iiLn345K2-38" value="record" style="outlineConnect=0;dashed=0;verticalLabelPosition=bottom;verticalAlign=top;align=center;html=1;shape=mxgraph.aws3.lambda_function;fillColor=#F58534;gradientColor=none;strokeColor=#51FF3D;" vertex="1" parent="1">
          <mxGeometry x="677" y="435" width="40" height="40" as="geometry" />
        </mxCell>
        <mxCell id="ul7a6vIlJn1iiLn345K2-41" value="" style="endArrow=classic;html=1;entryX=0;entryY=0.5;entryDx=0;entryDy=0;entryPerimeter=0;" edge="1" parent="1" target="ul7a6vIlJn1iiLn345K2-36">
          <mxGeometry width="50" height="50" relative="1" as="geometry">
            <mxPoint x="596" y="340" as="sourcePoint" />
            <mxPoint x="646" y="290" as="targetPoint" />
            <Array as="points">
              <mxPoint x="596" y="261" />
            </Array>
          </mxGeometry>
        </mxCell>
        <mxCell id="ul7a6vIlJn1iiLn345K2-42" value="SES" style="outlineConnect=0;dashed=0;verticalLabelPosition=bottom;verticalAlign=top;align=center;html=1;shape=mxgraph.aws3.ses;fillColor=#D9A741;gradientColor=none;strokeColor=#51FF3D;" vertex="1" parent="1">
          <mxGeometry x="826" y="236" width="50" height="50" as="geometry" />
        </mxCell>
        <mxCell id="ul7a6vIlJn1iiLn345K2-44" value="" style="endArrow=classic;html=1;" edge="1" parent="1" source="ul7a6vIlJn1iiLn345K2-14" target="ul7a6vIlJn1iiLn345K2-38">
          <mxGeometry width="50" height="50" relative="1" as="geometry">
            <mxPoint x="576" y="480" as="sourcePoint" />
            <mxPoint x="626" y="430" as="targetPoint" />
            <Array as="points">
              <mxPoint x="588" y="456" />
            </Array>
          </mxGeometry>
        </mxCell>
        <mxCell id="ul7a6vIlJn1iiLn345K2-45" value="list" style="text;html=1;strokeColor=none;fillColor=none;align=center;verticalAlign=middle;whiteSpace=wrap;rounded=0;" vertex="1" parent="1">
          <mxGeometry x="676" y="390" width="40" height="20" as="geometry" />
        </mxCell>
        <mxCell id="ul7a6vIlJn1iiLn345K2-46" value="dynamoDB" style="outlineConnect=0;dashed=0;verticalLabelPosition=bottom;verticalAlign=top;align=center;html=1;shape=mxgraph.aws3.dynamo_db;fillColor=#2E73B8;gradientColor=none;strokeColor=#51FF3D;" vertex="1" parent="1">
          <mxGeometry x="825.5" y="335" width="51" height="50" as="geometry" />
        </mxCell>
        <mxCell id="ul7a6vIlJn1iiLn345K2-53" value="" style="edgeStyle=orthogonalEdgeStyle;rounded=0;orthogonalLoop=1;jettySize=auto;html=1;" edge="1" parent="1" source="ul7a6vIlJn1iiLn345K2-52" target="ul7a6vIlJn1iiLn345K2-26">
          <mxGeometry relative="1" as="geometry" />
        </mxCell>
        <mxCell id="ul7a6vIlJn1iiLn345K2-52" value="voucher-check" style="outlineConnect=0;dashed=0;verticalLabelPosition=bottom;verticalAlign=top;align=center;html=1;shape=mxgraph.aws3.lambda_function;fillColor=#F58534;gradientColor=none;strokeColor=#51FF3D;" vertex="1" parent="1">
          <mxGeometry x="776" y="500" width="40" height="40" as="geometry" />
        </mxCell>
        <mxCell id="ul7a6vIlJn1iiLn345K2-22" value="" style="shape=image;verticalLabelPosition=bottom;labelBackgroundColor=#ffffff;verticalAlign=top;aspect=fixed;imageAspect=0;image=data:image/vnd.microsoft.icon,AAABAAQAMDAAAAEAIABoJgAARgAAACAgAAABACAAKBEAAK4mAAAYGAAAAQAgALgJAADWNwAAEBAAAAEAIABoBAAAjkEAACgAAAAwAAAAYAAAAAEAIAAAAAAAAAAAAAAAAAAAAAAAAAAAAAAAAAAAAAAAAAAAAAAAAAAAAAAAAAAAAAAAAAAAAAAAAAAAAAAAAAAAAAAAAAAAAAAAAAAAAAAAAAAAAAAAAAAAAAAAAAAAAAAAAABCeaoFAEf/C46WlhuWlpYbkpKSMJWVlSOSkpIokJSUK46Wlh0AAAAAAAAAAAAAAAAAAAAAAAAAAAAAAAAAAAAAAAAAAAAAAAAAAAAAAAAAAAAAAAAAAAAAAAAAAAAAAAAAAAAAAAAAAAAAAAAAAAAAAAAAAAAAAAAAAAAAAAAAAAAAAAAAAAAAAAAAAAAAAAAAAAAAAAAAAAAAAAAAAAAAAAAAAAAAAAAAAAAAAAAAAAAAAACdnZ0LkpKSEpeXjDItV+osH0v0aJybhzCSk5OCk5OTTZKSkpeTk5NnkpSUbpOVlXuSkpKLkpOThpWVlSWSkpIgkpKSCAAAAAAAAAAAAAAAAAAAAAAAAAAAAAAAAAAAAAAAAAAAAAAAAAAAAAAAAAAAAAAAAAAAAAAAAAAAAAAAAAAAAAAAAAAAAAAAAAAAAAAAAAAAAAAAAAAAAAAAAAAAAAAAAAAAAAAAAAAAAAAAAAAAAAAAAAAAkpKSDJKSkhyUlJQxkpKSOpSUkmoEQv8ZJE7vnSJN8kOYmI1+k5OTdZKSkjqSk5OykpOTlJKUlImTk5N5kpKSZJOTk6qSk5PRkpOThI6Wlh+Li4sRAAAAAAAAAAAAAAAAAAAAAAAAAAAAAAAAAAAAAAAAAAAAAAAAAAAAAAAAAAAAAAAAAAAAAAAAAAAAAAAAAAAAAAAAAAAAAAAAAAAAAAAAAAAAAAAAAAAAAAAAAAAAAAAAAAAAAJKSkgaVlZUlkpKSFpCTk1+QlJQzkpKSLpOVk6CPj50hIU7xdSJN8XMtUOskk5ORxZKUlK+QkJA1kpKSgZeXl3mSkpKnlZaW55KTk5KSkpJ8kpSUaJKUlLWTk5POkpKSQgAAAAAAAAAAAAAAAAAAAAAAAAAAAAAAAAAAAAAAAAAAAAAAAAAAAAAAAAAAAAAAAAAAAAAAAAAAAAAAAAAAAAAAAAAAAAAAAAAAAAAAAAAAAAAAAAAAAACSkpICkpKSHJqamg+SlJRckpKSCJOTk1uTk5NhlZWVKZKUlIWZmY5CNFjpMyVR+OwiTfFzwbNaEZKUko2WmJiqkpOThJmamuWTk5N/lpaWNpKTk5yTk5Ock5OT65KTk+uSlJSnkpSUapKTk5KSkpI4AAAAAAAAAAAAAAAAAAAAAAAAAAAAAAAAAAAAAAAAAAAAAAAAAAAAAAAAAAAAAAAAAAAAAAAAAAAAAAAAAAAAAAAAAAAAAAAAAAAAAZKSkgKdnZ0LkpKSIpKSkhSSkpJSkpKSCJOTk3uTk5NdAAAAAJKSkpeUlZToh4ioFhBJ+S8lUPGpHEv1kI6RmI2ZmprdkpKSVpKSkhaSk5PBlJWVxJKTk76XmJj4kpKSk5OTk2eSkpKFkpKSv5OUlP6Sk5POlJSULQAAAAAAAAAAAAAAAAAAAAAAAAAAAAAAAAAAAAAAAAAAAAAAAAAAAAAAAAAAAAAAAAAAAAAAAAAAAAAAAAAAAAAAAAAAkpKSBJKSkgyTk5NDj5WVJZKSkjCTk5OskpKSCpKSkiiXl5fPk5OTU5WVlSmSkpJgmJqWeFtvyz8kT/LkJE7vwAAm/wmemYY1lJWV4ZOTk8aSk5OqmJmZ7JOTk3+VlZUnkpSUt5OVlaSSk5PtlpeX/5KTk8uSk5OgkpOTmJOTk5CSkpIIAAAAAAAAAAAAAAAAAAAAAAAAAAAAAAAAAAAAAAAAAAAAAAAAAAAAAAAAAAAAAAAAAAAAAAAAAACSkpICj5WVKQAAAAGQk5NFkpKSOJKSkhKTk5NNkpKSSpKSkjaWlpaHkpKSNICioweSk5PFm5yc/5aWjToAJv8KJE/wiiNQ+sdLY9V6lpeR0ZOUlOeUlJQxkpKSJpKTk9qTk5PGkpOT2p2env+Sk5PAk5WVf5KTk5qSk5OolZaW9paXl/+SlJR8aGhoAwAAAAAAAAAAAAAAAAAAAAAAAAAAAAAAAAAAAAAAAAAAAAAAAAAAAAAAAAAAAAAAAAAAAACSkpIElZWVI5KSkgKTk5Nxjo6OHYSEhAmSk5PWk5OTdQAAAACSkpJUm5yc9pKUlHaUlJQrk5OTV5iYmH6Tk5NJIU3yxSdV//8fTfGH/8sABJWVkHOYmZnRkZKSoZKTk92enp//kpKSrZKSkkqSk5PDlJSUfpKTk+6UlZX+lJWV+JKTk9eSk5OYk5OThqmpqQUAAAAAAAAAAAAAAAAAAAAAAAAAAAAAAAAAAAAAAAAAAAAAAAAAAAAAkpKSBpiYmBOSkpIQkpSUYJKSkgKVlZUpkpKSi4CAgAeWlpYfkpKSVpSUlDuTk5NZl5mZrJKSkjQAAAAAkpSUjaSlpf+Tk5LRCD34FSBO9VAkT/CaHEv2iIeLoKCenp3/lZaW/5KSkkKXl5dikpOTvpOTk3OSk5PanJ2d/5KTk/SVlpbskpSUs5KSkpuUlpbSl5iY/5OTk3MAAAAAAAAAAAAAAAAAAAAAAAAAAAAAAAAAAAAAAAAAAAAAAAAAAAAAkpKSAqOjoweSkpIakpKSMAAAAACTk5NzkpSUegAAAACUlJQ7nZ6e/5KSkoUAAAAAkJCQLZaXl9GSlJSrkpaWOJmZmZWTk5NhnpiGKiRP7kkmVf//JlX//zBV54SamIxpkpOTppeXl32SkpJglpeX/5mamv+Sk5Pik5OT15OTk+OTk5NLkpOT4JOUlOSWl5f/lJWV/ZKTk7yUlJQrAAAAAAAAAAAAAAAAAAAAAAAAAAAAAAAAAAAAAAAAAAAAAAAAlZWVJY+Pjyf///8BkpOTgpWVlSUAAAAAkpKSTpOTk2+Nl5cXlJSUVpKSkjCPlZUnkpKSYpucnP+SkpKtAAAAAIqKig+Tk5PamJmX+oaKoHocTPSYJVD1uyJN81YAJv8LlZWRv5ydnf+TlJT3kpOTvpWWlu2TlJS+kpKSGJOUlNiTlJTjkpOT9peYmP+TlJTzkpOT25KSkq2TlJTIkpKSFAAAAAAAAAAAAAAAAAAAAAAAAAAAAAAAAAAAAAAAAAAAlpaWG4SEhAmSkpISkpOTgAD7/wGAgIAHkpOT4pOTk5gAAAAAjpaWG5SVle6Sk5PfkpKSDpSUlDOSkpJUl5eXhJOTk0GSk5PtmJmZ/5WVkGMAAAAAIU7xbCVR9/MfTfPVfIWqqpaXlP2TlJT1kpKSKJKXly6TlJTwk5SU0JKTk/GXmJj/kpOT9pSWlt2TlJTQk5OTxJWWlvaZmpr/k5OTdwAAAAAAAAAAAAAAAAAAAAAAAAAAAAAAAJ+fnwl5eXkFkpKSEpOTk0kAAAAAh4eHC5OTk2mEn58JkpKSKJKSkh6UlJQtkpKSJpWWltSSlJR8AAAAAIeHhwuSk5PwoaKi/5KSkoOPlZUnk5OTVZSUlI2Xl4xxKVHsniVU//8mU/7/Ik7xVaGdgTWSk5OwlpeXuJKUlHySk5P+l5iY/5KTk+qTlJTUk5SU65OTk3WTlJT8kpOT/ZOUlP+UlZX9kpOTppKSkhYAAAAAAAAAAAAAAAAAAAAAAAAAAJKSkg6SkpIElJSUM5OTk1EAAAAAk5OTZZKTk9V5qKkF////AZKTk8qTlJTokpKSCHl5eQWTk5NLmJmZqJKSkjKSk5OilZeXypKSkjQAAAAAkpSUdJ2en/+bnJn/gYanch1M9Y0kT/GmH1D3ZUZe2C6UlJHnmJma/5KTk/uSlJS5lpeX85OTk8KSkpIuk5SU8JOUlPuSk5P/k5SU/5SVlfySk5PXkpOTzZKTk5AAAAAAAAAAAAAAAAAAAAAAAAAAAJKSkgSdnZ0LAAAAAJKSkhSXl5cZmJiYE5iYmBWSkpIYkpKSCJKSkq2SlJR8AAAAAAAAAACSk5Pdo6Sk/5KUlHAAAAAAkpKSJpSVlbuSk5Osk5OTX5WWlvKVlpbomZmKMQAAAAAkT/CsJlL8/yRP8eWCiKTHmJmW/5KTk+6YmJgVlJSUZJeYmPqSk5PdkpOT+5OUlP+Sk5P7lZaW/JOUlMaSk5PjlZaW+pKTk+eZmZkRAAAAAAAAAAAAAAAAAAAAAI+VlSeQlJQxAAAAAJKTk6STk5NbAAAAAJKVlUqUlZXwkpKSJgAAAACVlZUhmJiYmJKSkjCSkpJwlZaWoI6Wlh2SkpICk5OTb56en/+bnJz/kpKSRJKSkiSSlJRmmJmYtZOVk3UkT/DHJlL7/yNQ+P8yV+hImpqJTZKTk8WUlJSrkpOTppaXl/+Vlpb/k5SU8JSVlfmSk5PMkpOTopaXl/uTlJT8lJWV/5OTk+iUlJQ1AAAAAAAAAAAAAAAAAAAAAAAAAAEAAAAAAAAAAJWVlSm4uLgDAAAAAJKSklaSlJSzkpKSBgAAAACSk5OUpqen/5OTk3cAAAAAkpKSEJKUlL+SlJS/lJSUPZWWlseTk5OqjY2NGQAAAACSk5PFm5yc/5WVkv5eccZhIE72ryRO77QXSvpMhYakL5OUkvyXmJj/kpOT+5KTk+6Zmpr/kJOTfZOTk3eWl5f7kpOT7pOUlP+TlJT/kpOT+5KSkreSkpKRAAAAAAAAAACSkpICkpKSDAAAAACSlJRakpKSHgAAAACSlJRekJOTYQAAAAAAAAAAkpWVRJSUlC+Qk5NBlpeXl5iYmBUAAAAAk5OTS52env+YmZn/lJSULQAAAAGTk5NPl5mZ1pKTk5CSkpKTmZqa/5KTk9+5t0wMACb/CCRO79IjUPn/NVflw5KTk+uam5v/kpOT2pWVlSWUlpa4lJaW15KTk8GUlZX/k5SU/5aXl/+Sk5PnkpKSwZSVldaSk5PpkpKSEgAAAAAAAAABeXl5BQAAAACSkpJCkpKSDAAAAACSk5OmkpSUeAAAAACSkpIalJWV/5KTk7AAAAAAAAAAAJKTk4CSlJSpkpKSHpKUlJmUlJR8i4uLEQAAAACTk5O4nJ2d/5KTk/6SkpImk5eXRZKSknSYmJWSaHW8WiJO8volUfb/IU7x7nyErVCYmJelk5WV05OTk02RkpLBmJmZ/5WWlv+Vlpb/kpOT+ZKUlJmSk5Puk5SU0peYmP+Tk5PwkpKSLAAAAAAAAAAAuLi4A5KSkgQAAAAAjJiYE5KSkgydnZ0LuLi4A52dnQudnZ0Lk5OTopKSkkwAAAAAmpqaD5OUlPaam5v/kpKSLgAAAACTk5NBmJqa3JKTk5CTk5NdmJmZ4ZKTk5ySkpIEn5+fCZKTk+ucnZz/kpOS0yhQ7ZMlUvriIk7wnwAm/waVlY5hmJmZ/5KTk/+TlJT4l5iY/5KTk+WTk5N7lJWV8JKUlJuSk5P4lpeX/5OUlPqSkpK5kJOTQQAAAAAAAAAAjpaWHZKSkhoAAAAAkpKSlZOTk0kAAAAAlJSUPZKTk9yXl5cXAAAAAI6OjhuVlZWEjo6OHZKUlHKSlJR6kpKSBgAAAACSkpKXoKGh/5OUlOqjo6MHioqKD5OTk3eZmZnDk5OTX5OTk96cnZ3/k5OTxgAAAAAeTfE/JU/z1BxM9ct7hKu6mpuX/5eYmP+SkpKLk5OTtpOUlNmSkpJKkpOT8ZaXl/+Wl5f/k5OT65KTk82RkpKnkpSUiwAAAAAAAAAAAAAAAAAAAAAAAAAAlZWVI4ecnQsAAAAAkpKSOpOTk7iSkpIMAAAAAJKUlHalp6f/k5OTYwAAAACJiYkNk5OTvpKSkpuQlJQxl5mZrJKSkl6SkpIGnZ2dC5KTk/GcnZ3/kpOTw5KSkjSXmZmAkpKSfpmZikgkTvB/JlL9/yNR+/8+XN+xl5aNuJOUlNqSkpIskpSUWpiZmf+Sk5P5lJWV/5KTk/qTlZXPkpOTvJKTk5iXmJj8kpOTmgAAAAAAAAAAAAAAAI2NjReVlZUpAAAAAIyMjBWQk5NXAAAAAAAAAACWlpYbkpKSKpWVlSeVl5eMmJiYFQAAAACSkpI4nJ2d/5KTk/aKiooPAAAAAJOTk2WZmprVkpKSYJKTk6CZmprwlJSUbgAAAACQkJBLl5iY/peXkv5ldb+VHU318iVR9vcXSvRN/+EAB5KTk8yTlJTmkpOT15aXl/+TlJT0kpOTxZKTk+WSlZVOkpOT8ZOUlO6Wl5f6k5OTbQAAAAAAAAAAAAAAAI6OjhuUlJQvAAAAAJSUlDOSk5O+aGhoAwAAAACSkpKjkpOT4AAAAAEAAAAAkpWVVJSUlKWSkpIakJOTe5OTk1tzkpIIAAAAAJKTk82goaH/k5OTuri4uAOSkpIokpOThJKSkoaTk5N5m5yc/5ucnP+Wlo1fEkX5LSJO8J8fTvimZXW+bZWWkv+XmJj/kpOT0ZOUlOCSkpK7j4+PJ5OUlPKSk5Pfk5SU/5SVlfaSk5OokpSUaAAAAAAAAAAAAAAAAAAAAAAAAAAAaGhoA5KSkgKJiYkNAAAAAAAAAACSkpJOk5OTdQAAAAAAAAAAkpSUq6Chof+UlJQ7AAAAAJCUlDGYmZnVk5OTd5OTk0+ampq6k5OTRwAAAACSkpJImpub/5ucnP+SlJRmkpKSi5KTk5ablpI4LVXlHSRP8fAjUv7/Mlfm0JWVkNyWl5f3kpKSQJKSkkqVlpbqkpOTvJSVlf+Sk5P3kpOT85KUlHKSlJSpkpOTmgAAAAAAAAAAAAAAAAAAAAAAAAAAk5OTc5KSkhQAAAAAk5OTY5KSkoMAAAAAAAAAAJOTk0uSkpJCkJCQK5KUlGqSkpIGAAAAAJKSkmKhoqL/kpOTyQAAAACSkpIEkpKSm5SVlb2SlZVMlJWV7JSVlemSkpIkAAAAAJKTk6aZmpj4goejnB5M8ucmU/7/HU3zi5ybhyOSk5O6kpOTlpKTk6qZmpr/kpOT8ZWWlvmTk5N3kpSUm5KUlKmSk5P9k5OTfwAAAAAAAAAAAAAAAAAAAAAAAAAAjo6OG6mpqQUAAAAAk5OTS5KUlHoAAAAAAAAAAJKTk8uSk5PTAAAAAAAAAACTk5N9kpSUs5KSkhyUlpZ2kJSUN3l5eQqOjo4fk5SU/56en/+SkpJSkpKSIpKSklaXmZmCkJSUPZKTk/KcnZ3/lJSQsB9N9T4kUPORH0v2aICFpz+UlJP8lJWV/5KTk9GYmZn9k5OTX5KSkoGSkpKTkpOT1JeYmP+Tk5PAlJSUMQAAAAAAAAAAAAAAAP///wGMmJgTAAAAAJKSkgSUlJQ9AAAAAAAAAACSkpIYkpKSGJKSkjiQk5NJAAAAAAAAAACSkpKzmJmZ/5KSkiYAAAAAkpSUXJqbm9qTk5NNkpOTgpOVlaSLi4sRAAAAAJKTk8afoKD/k5OTpJOTk3eXmJi+kpKSSAAAAAAiTvC7IlD9/0xl07eWlo//kpOT45KSki6SlJSxk5OTcZKTk8eSk5P/kZOT+5KTk5qQk5N/kpKSQAAAAAAAAAAAAAAAAAAAAAGSkpIUAAAAAKmpqQWTk5N9kpKSCgAAAACSk5OCkpSUswAAAAAAAAAAkpOTgpOTk3GOlpYdkpWVRImJiQ2jo6MHkpOTjKOkpP+Tk5N9AAAAAJKSkiiYmJi9kpKSZJKTk6aam5v6k5OTZwAAAACSkpJumpuY3IKIpXwfTfPsJVP9/yZO73CZmYpkkpOTlpKSkjySk5Pxk5SU7pKTk/uSk5OqkpKSiZKUlHCSk5PbkJCQKwAAAAAAAAAAAAAAAAAAAAAAAAAAAAAAAAD7/wEAAAAAAAAAAAAAAACSkpIckpKSPgAAAAAAAAAAkpOTrJOTk8gAAAAAAAAAAJOTk7iSlJS5kpKSGJWYmGGSkpIikpKSDpKUlHijpKT/kpOTwZubmw2WlpY+lZWVZZKSki6Sk5PZn6Cf/5KUkZ8ZTPZjJE7wpBdI/CaVlY5zmJmZ/5KTk8yXmJj/kpKSk5KTk4qTk5NhkpOTwpKTk+OSkpKfuLi4AwAAAAAAAAAAAAAAAAAAAAAAAAAAkpKSBpKSkiwAAAAAeaipBZKSkouSkpIOAAAAAJKSkj6SkpJYkpKSDo2NjRmfn58JkpKSBJKUlK2Sk5PU////AQAAAACSkpK7kpKSz5KSkjKXmZmhkpKSRgAAAACSlJR6n6Gh/5KSkq2SlJR4lpeXupWVjikGQ/kYJFDy2iFO8cuQkpbLmJmY/5KSkl6SlJSRlJSUP5KSkruTk5Pmk5OT4pKTk5KSkpI6AAAAAAAAAAAAAAAAAAAAAAAAAAAAAAAAAAAAAP///wEAAAAAAAAAAJCUlDeSkpIMAAAAAJKSklSSk5O6AAAAAAAAAACSkpKvkpOTlp+fnwmMmJgTkpKSKoyYmBOSk5PKkpOT5p+fnwmSkpIEkpOTrJKTk5CTk5N3mpyc9JOTk2cAAAAAkpKSeJeXj7Q+XN+AJlX//x9N8beQkZZTkpOSmJWVlSGSk5PWkpOTz5KTk/iSkpKTk5OTb5KTk4ySkpI+AAAAAAAAAAAAAAAAAAAAAAAAAAAAAAAAAAAAAAAAAAD///8BkpKSMAAAAAAAAAAAkJSUPZKSkhCSkpIKqampBYCAgAeSlJRykpOTjgAAAACSkpIOkpOT95KTk5CXl5cXj5WVJ5WVlSmSkpIumZqa/5KTk9WSkpIKkJSUP5SWlmqSkpIykpOT+pWWk/9mdb9NIE/2kRVH9jaWlo1RlZaW8JKTk7CUlZX/kpSUcJOTk3mTk5NnkpOTxpKTk6qSkpIIAAAAAAAAAAAAAAAAAAAAAAAAAAAAAAAAAAAAAAAAAAAAAAAAl5eXGZKSkgIAAAAAkpSUbJSUlDcAAAAAk5OTQ5KUlLsAAAAAAAAAAJOTk0GSkpIikpOTmJOTk2MAAAAAk5OTVZmamv6SkpJMkpKSYJKSkkCSkpIEkpKSlaGjo/+SkpJokpSUl5OTk3MAbP8DJE7wpSFO8b2Sk5PGk5SU4pKSkk6SlJR8kJOTU5KTk8iTk5PSkpKSnZKSkiQAAAAAAAAAAAAAAAAAAAAAAAAAAAAAAAAAAAAAAAAAAAAAAAAAAAAAAAAAAAAAAACSkpIUaGhoAwAAAACAgIAHkpKSEJKSklz///8BAAAAAJKTk8mSkpKRAAAAAJKSkiSTk5Npk5OTQZeYmMmSkpIiAAAAAJKUlL+Sk5OSk5OTe5SWlriSkpIQkpaWOJeYksBdbsdqIlD6/x1L9IuWlpBXkpWSUJOTk3OSk5POk5OT2JKSko2SlJRuk5OTaZKSkhAAAAAAAAAAAAAAAAAAAAAAAAAAAAAAAAAAAAAAAAAAAAAAAAAAAAAAAAAAAAAAAACVlZUnkpKSFAAAAACTk5NRkJOTWwAAAACSkpIek5OTU5KSkiaVlZUnAAAAAJOTk1uSk5P/kpKSFIeHhwuTk5NllJSUMZKTk++Sk5OCAAAAAJKSkmqQk5NVkpOTtpWWlPZzfrQ1HE30eERh3SKUlJGzkpOTtJKTk9ySlJRskpSUZJKUlHaSk5Oqk5OTUwAAAAAAAAAAAAAAAAAAAAAAAAAAAAAAAAAAAAAAAAAAAAAAAAAAAAAAAAAAAAAAAAAAAAAAAAAAAAAAAJKSkgSSkpIQkpKSFgAAAACWlpYbkpKSoQAAAACSkpIIk5OTqpWVlSeUlJQ1kpKSBpSUlDOam5v/kpWVQpWVlSGSkpJAkpKSMpmbm/+Sk5OOkpWVQpaTkE0fSvYzH03y5F9vxIiVlY/Yk5OTQZOTk12Qk5N5kpSUu5KSkqGSkpJMAAAAAAAAAAAAAAAAAAAAAAAAAAAAAAAAAAAAAAAAAAAAAAAAAAAAAAAAAAAAAAAAAAAAAAAAAAAAAAAAAAAAAIqKig+QlJQtAAAAAJWVlSGTk5NRAAAAAJubmw2Xl5cZkpSUi46Wlh0AAAABkpOTxpCUlDmSkpJKkpKSCpKVlVKTlJT+kpaWNpSUlG6Nl5cXk5OTd5aWjrsmUO2HHUzznYyQnTeUlJJekpOTnJKUlKuSkpKfk5OTV5OTk2eSkpISAAAAAAAAAAAAAAAAAAAAAAAAAAAAAAAAAAAAAAAAAAAAAAAAAAAAAAAAAAAAAAAAAAAAAAAAAAAAAAAAAAAAAAAAAAAAAAAAAAAAAJKSkgySkpIuAAAAAJCUlC2SkpKLAAAAAJSUlDGUlJQ1kpKSg5KSkhKQlJQxkpKSt5CUlD2Tk5NjhISECZKTk6yQk5NpkpOTqpqajU8aSfZTVGrQTJWVj8qSk5OAkpOThpKSkk6SlJRykpOTlJSUlDUAAAAAAAAAAAAAAAAAAAAAAAAAAAAAAAAAAAAAAAAAAAAAAAAAAAAAAAAAAAAAAAAAAAAAAAAAAAAAAAAAAAAAAAAAAAAAAAAAAAAAAAAAAJKSkigAAAAAkpKSDpKSkjaampoPeXl5BZKSklySlJRsAAAAAJCTk2eSkpJGk5OTdaOjoweSkpKTkpKSQpKTk6iSkpIkmZmNajlY4VIaSvTIani7VZeXj16SlJRukpSUfJKSkouSlJRwlpaWGwAAAAAAAAAAAAAAAAAAAAAAAAAAAAAAAAAAAAAAAAAAAAAAAAAAAAAAAAAAAAAAAAAAAAAAAAAAAAAAAAAAAAAAAAAAAAAAAAAAAAAAAAAAAAAAAAAAAAAAAAAAkpKSCpKSki4AAAAAkpWVUJSUlDGSkpIMj5WVJZKSko+pqakFk5OTX5KSkkCSkpKTlZWVIZOTk1eTk5NpmJiNkyZQ70xtebtSlZWQgpKUlHqSlJRwk5OTZ5KUlF6UlJQ7kpKSAgAAAAAAAAAAAAAAAAAAAAAAAAAAAAAAAAAAAAAAAAAAAAAAAAAAAAAAAAAAAAAAAAAAAAAAAAAAAAAAAAAAAAAAAAAAAAAAAAAAAAAAAAAAAAAAAAAAAAAAAAAAkpKSEJKSkgSampoPlJSUK5KSkgyUlJQvk5OTXZKSkhSUlJQzkpSUfJWVlSeSlZVKkpSUapKUkmyXl5BDHUz1XiFN8XiVlZBpkpSUYJOTk1WTk5Nxk5OTXZWVlSUAAAAAAAAAAAAAAAAAAAAAAAAAAAAAAAAAAAAAAAAAAAAAAAAAAAAAAAAAAAAAAAAAAAAAAAAAAAAAAAAAAAAAAAAAAAAAAAAAAAAAAAAAAAAAAAAAAAAAAAAAAAAAAAAAAAAAAAAAAAAAAACEn58JmJiYE5mZmRGUlJQ9kpKSFJOTk0OUlJQ9kJSUPZOTk0eSkpJgkpKSPpaWkF97hK5gTmbRU5KSlGCTk5Bdk5OTXZOTk2WSlZVCmJiYFQAAAAAAAAAAAAAAAAAAAAAAAAAAAAAAAAAAAAAAAAAAAAAAAAAAAAAAAAAAAAAAAAAAAAAAAAAAAAAAAAAAAAAAAAAAAAAAAAAAAAAAAAAAAAAAAAAAAAAAAAAAAAAAAAAAAAAAAAAAAAAAAAAAAAC4uLgD////AZKSkhadnZ0LkpKSMJWVlSeUlJQrk5OTS5SUlDuVlZJEmZmNV0Ng2kUtVOpYkpWSVJOTkFOSlZVSkJOTS4+Pjymjo6MHAAAAAAAAAAAAAAAAAAAAAAAAAAAAAAAAAAAAAAAAAAAAAAAAAAAAAAAAAAAAAAAAAAAAAAAAAAAAAAAAAAAAAAAAAAAAAAAAAAAAAAAAAAAAAAAAAAAAAAAAAAAAAAAAAAAAAAAAAAAAAAAAAAAAAAAAAAAAAAAAAAAAAAAAAAGSkpIIkpKSGJKSkiCSkpI6kpKSKpOTk01od705aHW9SIaNnkmXl4xFk5OTSZKWlj6SkpIsi4uLEQAAAAAAAAAAAAAAAAAAAAAAAAAAAAAAAAAAAAAAAAAAAAAAAAAAAAAAAAAAAAAAAAAAAAAAAAAAAAAAAAAAAAAAAAAAAAAAAAAAAAAAAAAAAAAAAAAAAAAAAAAAAAAAAAAAAAAAAAAAAAAAAAAAAAAAAAAAAAAAAAAAAAAAAAAAAAAAAAAAAAD///8Bo6OjB5WVjiOKkJoveYSvMouQmTV0f7I3hYufMZSUjy+SkpIokpKSHpKSkggAAAAAAAAAAAAAAAAAAAAAAAAAAAAAAAAAAAAAAAAAAAAAAAAAAAAAAAAAAAAAAAAAAAAAAAAAAAAAAAAAAAAAAAAAAAAAAAAAAAAAAAAAAAAAAAAAAAAAAAAAAAAAAAAAAAAAAAAAAAAAAAAAAAAAAAAAAAAAAAAAAAAAAAAAAAAAAAAAAAAAAAAAAAAAAAAAAAAAAAAAAJKSkgqAkqMOaH66DJKSkgympXwMo6J/BwAAAAAAAAAAAAAAAAAAAAAAAAAAAAAAAAAAAAAAAAAAAAAAAAAAAAAAAAAAAAAAAAAAAAAAAAAAAAAAAAAAAAAAAAAAAAAAAAAAAAAAAAAAAAAAAAAAAAAAAAAAAAAAAAAAAAAAAAAAAAAAAAAAAAAAAAAAAAAAAAAAAAAAAAAAAAAAAAAAAAAAAAAAAAAAAAAAAAAAAAAAAAAAAAAAAAAAAAAAAAAAAAAAAAAAAAAAAAAAAAAAAAAAAAAAAAAAAAAAAAAAAAAAAAAAAAAAAAAAAAAAAAAAAAAAAAAAAAAAAAAAAAAAAAAAAAAAAAAAAAAAAAAAAAAAAAAAAAAAAAAAAAAAAAAAAAAAAAAAAAAAAAAAAAAAAAAAAAAAAAAAAAAAAAAAAAAAAAAAAAAAAAAAAAAAAAAAAAAAAAAAAAAAAAAAAAAAAAAAAAAAAAAAAAAAAAAAAAAAAAAAAAAAAAAAAAAAAAAAAAAAAAAAAAAAAAAAAAAAAAAAAAAAAAAAAAAAAAAAAAAAAAAAAAAAAAAAAAAAAAAAAAAAAAAAAAAAAAAAAAAAAAAAAAAAAAAAAAAAAAAAAAAAAAAAAAAAAAAAAAAAAAAAAAAAAAAAAAAAAAAAAAAAAAAAAAAAAAAAAAAAAAAAAAAAAAAAAAAAAAAAAAAAAAAAAAAAAAAAAAAAAAAAAAAAAAAAAAAAAAAAAAAAAAAAAAAAAAAAAAAAAAAAAAAAAAAAAAAAAAAAAAAAAAAAAAAAAAAAAAAAAAAAAAAAAAAAAAAAAAAAAAAAAAAAAAAAAAAAAAAAAAAAAAAAAAAAAAAAAAAAAAAAAAAAAAAAAAAAAAAAAAAAAAAAAAAAAAAAAAAAAAAAAAAoAAAAIAAAAEAAAAABACAAAAAAAAAAAAAAAAAAAAAAAAAAAAAAAAAAAAAAAAAAAAAAAAAAAAAAAAAAAAAAAAAAAAAAAAAAAAAAAAAAAAAAAAAAAAD//QABLFvmD3mEsxmVlY4llJSUMZKSkiySkpIkkpKSGJKSkgYAAAAAAAAAAAAAAAAAAAAAAAAAAAAAAAAAAAAAAAAAAAAAAAAAAAAAAAAAAAAAAAAAAAAAAAAAAAAAAAAAAAAAAAAAAAAAAAAAAAAAAAAAAAAAAACHnJ0LlpaWG5iYjD0sUutKQF3dVpmXjHWQk5NnkpKSiZKTk4SSkpKFk5OTb5OTk22SkpIUAAAAAAAAAAAAAAAAAAAAAAAAAAAAAAAAAAAAAAAAAAAAAAAAAAAAAAAAAAAAAAAAAAAAAAAAAAAAAAAAAAAAAAAAAAB5eXkFlpaWHZSUlDeSkpIylZWQc1lqxjYdS/SLcXq0WpaWj5OSlJRokpOTmpKSkp2Sk5OikpOTjpKSkq2Sk5OIkpKSEgAAAAAAAAAAAAAAAAAAAAAAAAAAAAAAAAAAAAAAAAAAAAAAAAAAAAAAAAAAAAAAAAAAAAAAAAABkpKSDpKSkhyUlJQ9kJOTQ5KSkkySlJRclpaPdhRH+WEaSvV/hIqkepSVkbOQk5NvkZKSlZKSkqOSk5PRkpOTqpKSkpGSk5PIkpSUWgAAAAAAAAAAAAAAAAAAAAAAAAAAAAAAAAAAAAAAAAAAAAAAAAAAAAAAAAAAAAAAAJ+fnwmQlJQvlZWVI5KSklySkpIkkpOTlpKSkiSTlZKWhYiiVRxL9a8oUO1akpSUfpOTk8OSk5OokpOTopOTk32Tk5O8kpOT4pOTk9CSk5Okk5OTjpKSkgoAAAAAAAAAAAAAAAAAAAAAAAAAAAAAAAAAAAAAAAAAAAAAAACSkpIMjIyMFZKSkkyZmZkRkpOTiJKSkiKTk5N1k5OTa5KUlHyYmI94UWXTRCBO+OhLY9VxnZuJjZSWlnaSlJS/kpOT7ZKUlK+SlJSbk5OTsJSVle2TlJTuk5OTc4eHhwsAAAAAAAAAAAAAAAAAAAAAAAAAAAAAAAAAAAAAkpKSCJWVlSWWlpYbk5OTU5KSkjKSkpJKk5OTZZOTk1uSlJR8lZWVI5KTk9+PkZeABEL/SxlK+adgcMKUmZmU9ZKUlHqSk5OQlpaWnZOUlOyTlJTxk5OTypSUlLGWl5fukpKShQAAAAAAAAAAAAAAAAAAAAAAAAAAAAAAAAD7/wGSkpIYkpKSHpSUlDWSkpIykJOTS5OTk0uTk5N/h5ydC5KTk8mSk5OIkpKSJpWVkKh8hal+H0721h1M84qZmY5IlZWU1pKTk8eWl5f4k5OTnpKTk7KVlZW9lZaW/5OUlPWSk5PCkpKSSgAAAAAAAAAAAAAAAAAAAAAAAAAAkpKSApKSkhqSkpIilJSUOZWVlSOSkpKXAAAAAJKTk5ySk5OWkpKSJpKTk4ySlJRskpOTzpWXkIwrUe0fIU7y2zVX5b+VlZLIkpSSsZKSklCSk5PdkpOT5ZaXl/+Sk5PRkpKS1ZOUlPaSk5PQkpKSBgAAAAAAAAAAAAAAAKmpqQWSkpIGkpWVQgAAAACSkpKFkpKSEpOTk1GSk5OClJSUOZCTk2OSkpI8kpOTzpKTk4ySkpIIk5OSyY2QmMAkT/GsHk3yslttyTGUlJLgk5OU2pOUlOaSk5PPkpKSpZWWltaTlJT/k5SU/ZKTk9mTk5NhAAAAAAAAAAAAAAAAgKKjB4uLixGSkpIilJSUK5KSkiaUlJQ9k5OTU5OTk2GAgIAHkpKSzZKUlJloaGgDkpOTpJKTk5ySk5OklZWSqpKTmxohTvHMJk/u7YeLoL+UlJLWkpWVTJOTk+CTlJTkmJmZ/5SVleSSk5Pgk5SU85KTk9CSkpIEAAAAAAAAAACAgIAHkpKSDJKSki6PlZUnlZWVJZKUlKMAAAAAkpKSiZKTk6iSkpIek5OTa5KUlGSSk5O6kpOTqAAAAACSk5O6k5OS4zVY5aIhTvHRH0r2M5SWkLqUlZXrk5SU85OUlOSTlZWqlJaW15KTk/qUlZX/kpOTzpKSkjIAAAAAuLi4A5KSkgKUlJQ7AAAAAJOTk2mVlZUllpaWH5KUlGySkpJGkpWVUJiYmBWSkpLBkpSUvQAAAACSlJSRkpOTvJKTk56TlJPEqKdwGyFN86giTvPwfISryZWWkvWTk5NdkpOTzJSUlNSXmJj/k5SU8pKTk9SSk5PrkpKShQAAAAAAAAAAeaipBYmJiQ2Li4sRkpKSOpiYmBOUlJQ7kpOTogAAAACSk5OGkpOTypKSkhKTk5Nlk5OTd5KUlKOSk5PQkpKSCJKTko6WlpLiQF3csyBO9uIoUPA6l5eOp5SUlNWTlJT3k5SU6pKTk8qTlJS4k5OT9ZSVlfySk5OGAAAAAQAAAACSkpISkpKSDJOTk1kAAAAAk5OTmJKSkiSSkpIak5OTlJKSkj6Qk5NXkpKSKpKUlJ+Sk5PhuLi4A5OTk3WSlJS9kpKSoZWVleGamokrGkr0ih9O9dV/hqbWlZaS9pKUlHaSk5PKk5SUspaXl/+TlJTxkpOTvJKSkrOHh4cLAAAAAKmpqQWYmJgVo6OjB5SUlC+SkpIokpKSIpKSkjKSk5OeAAAAAJKSklqSk5P1kpKSHJKSkk6TlZV/kpSUk5SVleSSkpIYk5OTfZiYkMw9XOC5IE739kVg20yXl46nlJSUo5OUlP6TlJTnkpOTzpKSkqmUlZXjkpKSyZKSkgYAAAAAkpKSCJKSkhaSkpIMk5OTXwAAAACSkpKTk5OTSwAAAACSk5O0kJOTQZOTk1OUlJQ5kpSUdpSVlfmWlpYbkJOTW5OUlKySk5OklZaV64WLpDEcTPOZJE/wrI+RmOOTlJPnk5WVqpKTk5CSk5POlJWV9JOUlNSSk5OQkpKSEAAAAAAAAAAAkpKSDJKSki4AAAAAkpKSXIuZmRGSkpIqlJSUNZKSkomSkpIakpKSKpSVlf2UlJQ1kpKSRJKUlIGSkpKJlZaW7o+VlSWQk5N7lpaQqC1T6ssfTfHrgIemZ5SUka2SkpKPlJWV+ZKTk+eTk5OikpSUsZOTk7ySkpIKAAAAAAAAAACAgIAHmpqaD5+fnwmSlZVKAAAAAJOTk1mSkpKDAAAAAJKTk6SSkpJqkpWVQJCTk0WSkpJglpeX9o+VlSeQk5NjkpOTmpKTk7CUlJLlTGXXNxpK9aJZbMqBlZaS/5KTk76Sk5OqkpKSh5OTk8yTlJTmk5OTcQAAAAAAAAAAAAAAAZubmw0AAAABkpWVSAAAAACTk5NnkpKSMJmZmRGSkpJmkpSUWJOTk0GSkpISkpOT7ZKVlVCQlJQ1k5OTe5KTk5CTlJTelpaWH5SUkZmBh6Z9HUzz9DVY5KGYmI2ekpSUZpKTk9iSk5PdkpSUs5GSkpmTk5N7AAAAAAAAAAAAAAAAAAAAAJKSkgz///8BjpaWH5KSkiaXl5cXkpKSIpKTk4wAAAAAk5OTc5KSkpuVlZUnk5OTW5KSklyTlJTnlpaWH5OTk3OTk5N7k5ST2pKUkpEZSfZuJU/vepOVkceSk5PLkpKSrZKSkoWSlJSxkpOTy5SUlDsAAAAAAAAAAAAAAAAAAAAAkpKSCgAAAAGUlJQvmZmZEZKSkiaSlJRwAAAAAJOTk3+Tk5NDkpKSPpKSkiCSk5POk5OTSZKVlUKSlJR8kpOTrJKTk5iSlpY6mJiNiy1T66okTvDFk5OSlpOTk2eSk5O0kpOTxpKTk6SSkpKFjIyMFQAAAAAAAAAAAAAAAAAAAAAAAAAAnZ2dC5KSkhCdnZ0Lk5OTQZKSkgSSkpJAk5OTU5KSkh6Tk5NFkpOTrIecnQuTk5NpkpSUcpKTk6yXl5cZkpOTnJKTk4KVlZHLOFrkVCRP8XiUlJCykpSUs5KTk5iSk5OEkpOTrJKUlHL///8BAAAAAAAAAAAAAAAAAAAAAAAAAAAAAAAAAAAAAJKSkhKMmJgVkpKSDpOTk1mSkpICkpKSYJKUlFqVlZUpk5OTSZKUlKWPj48hk5OTdZKUlHKSk5OwkJSUM5iYjZE4WOSNJU/uqpSUkYOSlJR6kpKSp5KSkqWSkpKHl5eXGQAAAAAAAAAAAAAAAAAAAAAAAAAAAAAAAAAAAAAAAAAAi4uLEQAAAACUlJQ5n5+fCZKSkjyUlJQ9kpKSJJOTk0uTk5N5kpKSFJKSkoWTk5N1lJSUP5KSkoGQk5N3lpaPnSxT6mJLZNJ5l5eOp5KSko2Tk5N/kpSUj5KUlF5oaGgDAAAAAAAAAAAAAAAAAAAAAAAAAAAAAAAAAAAAAAAAAAAAAAAAkpKSBpKSkhKSkpIMlJSUN5KSkhaQk5NHkpWVSJKSkjCTk5NlkJOTW5KWljySk5OIkpSUcpOTk0+VlZKEIE7zimV0wHmXl457kpKSh5KSko2Tk5NpkpKSBgAAAAAAAAAAAAAAAAAAAAAAAAAAAAAAAAAAAAAAAAAAAAAAAAAAAAAAAAAAAAAAAIuLixGSkpISkpKSIJSUlDWSkpIqkpKSUJKSkjiSlJRkkpWVUpKVlU6Tk5N5lZWQZ3mBr2wiTvFxlpaPfpOTk3mSlJR2kJOTb5KSkiAAAAAAAAAAAAAAAAAAAAAAAAAAAAAAAAAAAAAAAAAAAAAAAAAAAAAAAAAAAAAAAAAAAAAAqampBZKSkgKSkpIikpKSDJSUlDuSkpIkkpKSVJKSkjqSlZVMkpSUZJKSklSVlZBnSGLYZWx5u3CUlI9okpSUdJOTk2eSkpIeAAAAAAAAAAAAAAAAAAAAAAAAAAAAAAAAAAAAAAAAAAAAAAAAAAAAAAAAAAAAAAAAAAAAAAAAAAAAAAAA////Abi4uAOMjIwVkpKSFJKSkjaSkpIqkpKSRJOTk0eTk5NLl5ePYGh3vFFMZNRml5eMYpKSlGCSlZVQkpKSFAAAAAAAAAAAAAAAAAAAAAAAAAAAAAAAAAAAAAAAAAAAAAAAAAAAAAAAAAAAAAAAAAAAAAAAAAAAAAAAAAAAAAAAAAAAAAAAAGhoaAOSkpIMl5eXF5SUlCuUlJQ1lJSUP5KSkkxuertMYnHBU5mZilWTk5NPkJSUL5KSkggAAAAAAAAAAAAAAAAAAAAAAAAAAAAAAAAAAAAAAAAAAAAAAAAAAAAAAAAAAAAAAAAAAAAAAAAAAAAAAAAAAAAAAAAAAAAAAAAAAAAAAAAAAAAAAACAgIAHlpaWHY2SlzKMkJg7bHu6PIiMoTuUlI85kpKSJoqKig8AAAAAAAAAAAAAAAAAAAAAAAAAAAAAAAAAAAAAAAAAAAAAAAAAAAAAAAAAAAAAAAAAAAAAAAAAAAAAAAAAAAAAAAAAAAAAAAAAAAAAAAAAAAAAAAAAAAAAAAAAAAAAAACEhIQJfH2oEYOEoRCamokPo6J/B2hoaAMAAAAAAAAAAAAAAAAAAAAAAAAAAAAAAAAAAAAAAAAAAAAAAAAAAAAAAAAAAAAAAAAAAAAAAAAAAAAAAAAAAAAAAAAAAAAAAAAAAAAAAAAAAAAAAAAAAAAAAAAAAAAAAAAAAAAAAAAAAAAAAAAAAAAAAAAAAAAAAAAAAAAAAAAAAAAAAAAAAAAAAAAAAAAAAAAAAAAAAAAAAAAAAAAAAAAAAAAAAAAAAAAAAAAAAAAAAAAAAAAAAAAAAAAAAAAAAAAAAAAAAAAAAAAAAAAAAAAAAAAAAAAAAAAAAAAAAAAAAAAAAAAAAAAAAAAAAAAAAAAAAAAAAAAAAAAAAAAAAAAAAAAAAAAAAAAAAAAAAAAAAAAAAAAAAAAAAAAAAAAAAAAAAAAAAAAAAAAAAAAoAAAAGAAAADAAAAABACAAAAAAAAAAAAAAAAAAAAAAAAAAAAAAAAAAAAAAAAAAAAAAAAAAAAAAAAAAAAAAAAAAAAAAAAAAAACpqXgFNFrsE4+PnCOSkpIukJSUMZKSkiiLi4sRAAAAAAAAAAAAAAAAAAAAAAAAAAAAAAAAAAAAAAAAAAAAAAAAAAAAAAAAAAAAAAAAAAAAAAAAAAAAAAAAhISECZKSkiCXl4xBNFToU2RywmWXl4x7kpKSgZKSko2Sk5OQk5OTb5SUlDsAAAAAAAAAAAAAAAAAAAAAAAAAAAAAAAAAAAAAAAAAAAAAAAAAAAAAAAAAAJKSkgKSkpIUlJSULZOTk02UlI9WeIGuYBVH+HyBh6V7lJaRjZKSkpOSk5Oek5OTtpOTk6ySkpKHkpKSIgAAAAAAAAAAAAAAAAAAAAAAAAAAAAAAAAAAAAAAAAAAaGhoA5KSkhqQlJQtkpWVRpKSklyTk5NJlpaPiTlb4mkmT+6Ij5GXlpSUkp2SkpKjkpSUp5OTk8SSkpLLk5SUrpKSkkYAAAAAAAAAAAAAAAAAAAAAAAAAAAAAAAD///8BmJiYFZCUlCuSkpI2kpSUXpKSkkKSk5OAk5aTXZOTkoocTPSYPlzdeZKUkq2SkpKtkpOTuJOTk6iUlZXOk5SU5pKUlL2Tk5NBAAAAAAAAAAAAAAAAAAAAAAAAAACHh4cLlZWVKZCUlCuSkpJOk5OTV5OTk02Sk5OAkJOTaZSWkYl6gqtvGkr2x2t5uX2WlpCskpOTvpOVldOSlJS9lJWVyJWWlvaSk5O8l5eXGQAAAAAAAAAAAAAAAP///wGNl5cZkpKSKpKSki6Tk5NhlZWVJ5KTk5qSkpI4kpOTmJOTk3uWlo+dPVveaB9N88+JjJ2rlZWQnpKTk7CUlpbdlJWV5ZKTk9eWlpb0kpKSiQAAAAAAAAAAAAAAAKOjoweSkpIilZWVI5OTk0mUlJQ/k5OTZ5KSkkaSk5OIkpSUdJOTk1+SlJGpio2dpRJG+oowVOiWkZKU55KUkrOSlJS/k5SUzpWWlvaTlJTvkpOT2ZSUlCsAAAAAAAAAAJKSkg6OlpYflZWVJZKUlFiSkpIqkpSUdJOTk1mTk5NzkpWVVJOTk86SkpJAl5eNrmR0wKMaS/XUdH6ycZWVkceUlJXilZaW2JOTk9STlJTtlJWV+5OTk2UAAAAA////AZKSkhKSkpISkpWVTJKSkhaSlJRskJOTRZKVlVKTk5N7kpOThJOTk0WSk5PAkpKSk5uZin0pUO2YL1Pp15OUksqTk5OakpOT0ZOUlPGTlJTmkpOT45KUlLcAAAAAaGhoA5KSkgiQkJAtjpaWHZOTk0WTk5NLlJSUMZKTk5ySkpIkkpSUl5KSkoGSkpKHk5OTWZWVkOJsebmMDET7oWp5u5KVlpPtkpOT0ZKUlLeSk5PhkpOT9ZKTk7aSkpISAAAAAZKSkg6SkpIakpKSKJCTk0OVlZUpkpKSg5qamg+Sk5OskJOTS5OTk2+SkpKBkpSUu5KUlFiWlo2mLVTrxjJW57KYmIyelJSUrpSVleqSk5PVkpOTxZKTk9aWlpYbAAAAAImJiQ2SkpISlJSUM5KSkiSTk5NZkpKSJpKTk4SSkpJAkpSUXpKTk6aSlZVQkpSUhZKTk5yVlZG5YXHEXhlJ9sR+habIlpaSuZGSkq+Sk5PQk5SU3ZKUlK+WlpYdAAAAAAAAAACWlpYdjIyMFZKSkj6SkpIok5OTXZKSkjySkpJYkZKSj4+VlSOSk5O4kpSUcpKUlH6Tk5KIio6cvRdJ9qheb8WAlZWQxZKTk86SkpKxkpKSvZKTk7iLmZkRAAAAAKmpqQWSkpIElZWVJ5KSkhaSlZVGkpKSMJCTk1eTk5NhkJSUO5OTk5yQk5NRkpSUZJKSkruSlJRmmZeMlTZY5J49XN+3l5eOoZKUlKWTk5PEkpSUu5KSko2SkpIGAAAAAAAAAACSkpIIkpKSCJSUlCuWlpYdkJOTRZKWlj6SkpJMk5OTaZOTk1GSlJRwkpOTkJOTk1GSlJSVlZWPp1RqzHMsUuyflJWStZKTk6SSk5OkkpSUuZKUlGYAAAAAAAAAAAAAAAD///8BkpKSCpiYmBOVlZUnlJSULZCUlD2SkpJKk5OTS5KSkmiSlJRWkJOTeZOTk3eSlJR+lpaPgW96tpgkT++Sk5WSlpKTk6KSlJSjkpOToJKSkjAAAAAAAAAAAAAAAAAAAAAAuLi4A4CAgAeSkpIelpaWG5SUlDmSkpI2k5OTUZOTk0WSlJR2kpWVTJKSkm6SkpKJlZWQcXJ9soEvVOqWlJSRj5KUkpGSlJSbkpSUdJKSkgIAAAAAAAAAAAAAAAAAAAAAAAAAAJKSkgR5qKkFj5WVI5eXlxeUlJQ7kJSUNZKUlFaQlJQ/k5OTZ5KSkmiSlJRslpaNemd1vn1JY9iCl5eOjJKSkouSk5OGj4+PJwAAAAAAAAAAAAAAAAAAAAAAAAAAAAAAAAAAAACSkpICeXl5BZKSkh6Xl5cZlJSUOZKSkjSTk5NNk5OTTZKUlGCTk5NjmZmNbExj03dzfbN6lZWQfZKTk4CSkpJAAAAAAAAAAAAAAAAAAAAAAAAAAAAAAAAAAAAAAAAAAAAAAAAAAAAAAJKSkgSSkpIWlpaWG5KSkjKSlpY6k5OTSZKVlVKUlI9cgYijZExl1GuSkpRuk5OTcZKSkkAAAAAAAAAAAAAAAAAAAAAAAAAAAAAAAAAAAAAAAAAAAAAAAAAAAAAAAAAAAAAAAAD///8BkpKSDo6Wlh2SkpIukpKSPpOTkEmLjpxVX3DGWoWLoWCUlI9YkpKSKgAAAAAAAAAAAAAAAAAAAAAAAAAAAAAAAAAAAAAAAAAAAAAAAAAAAAAAAAAAAAAAAAAAAAAAAAAAAAAAAJKSkgaSkpIekpKWNoeLoUB1gbJEh4udQpSUjy+SkpIOAAAAAAAAAAAAAAAAAAAAAAAAAAAAAAAAAAAAAAAAAAAAAAAAAAAAAAAAAAAAAAAAAAAAAAAAAAAAAAAAAAAAAAAAAACjo6MHfn+mE4SFoBKSkpIMkpJnBgAAAAAAAAAAAAAAAAAAAAAAAAAAAAAAAAAAAAAAAAAAAAAAAAAAAAAAAAAAAAAAAAAAAAAAAAAAAAAAAAAAAAAAAAAAAAAAAAAAAAAAAAAAAAAAAAAAAAAAAAAAAAAAAAAAAAAAAAAAAAAAAAAAAAAAAAAAAAAAAAAAAAAAAAAAAAAAAAAAAAAAAAAAAAAAAAAAAAAAAAAAAAAAAAAAAAAAAAAAAAAAAAAAAAAAAAAAKAAAABAAAAAgAAAAAQAgAAAAAAAAAAAAAAAAAAAAAAAAAAAAAAAAAAAAAAAAAAAAAAAAAAAAAAAAAAAAhIWgCVFo1ByUlI8vkJSUNZKSkiajo6MHAAAAAAAAAAAAAAAAAAAAAAAAAAAAAAAAAAAAAAAAAACpqakFlZWVIZmZjkZLY9VjdX+wepaWj42RkpKbkpOTkJOTk01oaGgDAAAAAAAAAAAAAAAAAAAAAAAAAACSkpIGlZWVJ5KSkkaUlJJchYmhcDBV6IOJjJ2TlJSSpZKTk7aSk5PHkpOTipKSkgoAAAAAAAAAAAAAAACSkpICkpKSHJCUlDuTk5NRkpSUZpiYjXZldL6JPVrfmZSUkamTk5O6kpOTy5OTk+SSkpKNaGhoAwAAAAAAAAAAkpKSDJSUlC2SlZVEkpKSVpKSkmiTk5N7l5eQiDxc4JthcsKolpaPuJKTk86TlJThk5SU8JCTk0kAAAAAAAAAAZKSkhaSkpIwkpKSRJKUlFiQk5Npk5OTeZSUkYeEiaKcJE7urIiMn7OVlZPJk5SU3ZOUlPWSlJStkpKSApKSkgKSkpIWkpKSMJKSkkaSkpJUk5OTZZKUlHSSk5OKl5eMklFoz6ROZtKzlpaOw5KTk9aTlJTmkpOT2Y6WlhuSkpICjZeXF5KSki6SkpI+kpWVUpKSkmKSlJRykpSUfJOTkpCKjZydJlDuq4eLoLaTlJLIk5SU2JKTk9iUlJQxAAAAAZKSkhCSkpImkpKSOpKVlUyTk5NXkJOTa5KUlHiSk5OGl5eNlUhj16NhccSylpaPvpKSksmSk5PKkJSULwAAAACSkpIIjpaWHZCUlDGSkpJAkpWVVJOTk1+SkpJyk5OTfZaWkY11f7KZQl7bpJWVj7GSk5O4kpOTspaWlhsAAAAAkpKSApqamg+VlZUjkpKSOJKSkkaSlJRWk5OTZZKUlHSTlZN/iYyfjT1c35iSkpSjkpKSrZKTk4h5eXkFAAAAAAAAAACSkpIEkpKSFI+VlSeSkpI4k5OTS5KSkliTk5NplJSUdI6QmINGYdiLkpSUlZKSkp2Tk5NDAAAAAAAAAAAAAAAAAAAAAGhoaAOMjIwTlZWVJ5CUlDmSlZVKk5OTW5WVk2mDiqN0Wm3JgJSUj4mSkpJogICABwAAAAAAAAAAAAAAAAAAAAAAAAAAkpKSApKSkg6VlZUjlJSUOZOTk0uWlpBba3m5aH+HqHGWlpBdi5mZEQAAAAAAAAAAAAAAAAAAAAAAAAAAAAAAAAAAAAAAAAAAo6OjB5WVlSGSkpI+gIekTXqFrE+UlI83n5+fCQAAAAAAAAAAAAAAAAAAAAAAAAAAAAAAAAAAAAAAAAAAAAAAAAAAAACSkpIGjIykFYaHnhSSknkKAAAAAAAAAAAAAAAAAAAAAAAAAAAAAAAAAAAAAAAAAAAAAAAAAAAAAAAAAAAAAAAAAAAAAAAAAAAAAAAAAAAAAAAAAAAAAAAAAAAAAAAAAAAAAAAA;" vertex="1" parent="1">
          <mxGeometry x="768" y="601" width="48" height="48" as="geometry" />
        </mxCell>
      </root>
    </mxGraphModel>
  </diagram>
</mxfile>
